<svg xmlns="http://www.w3.org/2000/svg" width="6" height="12" viewBox="0 0 6 12">
  <metadata><?xpacket begin="﻿" id="W5M0MpCehiHzreSzNTczkc9d"?>
<x:xmpmeta xmlns:x="adobe:ns:meta/" x:xmptk="Adobe XMP Core 5.6-c138 79.159824, 2016/09/14-01:09:01        ">
   <rdf:RDF xmlns:rdf="http://www.w3.org/1999/02/22-rdf-syntax-ns#">
      <rdf:Description rdf:about=""/>
   </rdf:RDF>
</x:xmpmeta>
                                                                                                    
                                                                                                    
                                                                                                    
                                                                                                    
                                                                                                    
                                                                                                    
                                                                                                    
                                                                                                    
                                                                                                    
                                                                                                    
                                                                                                    
                                                                                                    
                                                                                                    
                                                                                                    
                                                                                                    
                                                                                                    
                                                                                                    
                                                                                                    
                                                                                                    
                                                                                                    
                           
<?xpacket end="w"?></metadata>
<defs>
    <style>
      .cls-1 {
        fill: #fff;
        fill-rule: evenodd;
      }
    </style>
  </defs>
  <path id="facebook" class="cls-1" d="M642.774,2778h-1.439a2.64,2.64,0,0,0-2.662,2.95v1.36h-1.447a0.238,0.238,0,0,0-.226.25v1.97a0.238,0.238,0,0,0,.226.25h1.447v4.98a0.235,0.235,0,0,0,.227.24h1.887a0.236,0.236,0,0,0,.227-0.24v-4.98h1.691a0.238,0.238,0,0,0,.227-0.25v-1.97a0.23,0.23,0,0,0-.066-0.17,0.212,0.212,0,0,0-.16-0.08h-1.692v-1.15a0.675,0.675,0,0,1,.79-0.84h0.97a0.235,0.235,0,0,0,.226-0.24v-1.83A0.238,0.238,0,0,0,642.774,2778Z" transform="translate(-637 -2778)"/>
</svg>
