<svg xmlns="http://www.w3.org/2000/svg" width="15" height="15" viewBox="0 0 15 15">
  <metadata><?xpacket begin="﻿" id="W5M0MpCehiHzreSzNTczkc9d"?>
<x:xmpmeta xmlns:x="adobe:ns:meta/" x:xmptk="Adobe XMP Core 5.6-c138 79.159824, 2016/09/14-01:09:01        ">
   <rdf:RDF xmlns:rdf="http://www.w3.org/1999/02/22-rdf-syntax-ns#">
      <rdf:Description rdf:about=""/>
   </rdf:RDF>
</x:xmpmeta>
                                                                                                    
                                                                                                    
                                                                                                    
                                                                                                    
                                                                                                    
                                                                                                    
                                                                                                    
                                                                                                    
                                                                                                    
                                                                                                    
                                                                                                    
                                                                                                    
                                                                                                    
                                                                                                    
                                                                                                    
                                                                                                    
                                                                                                    
                                                                                                    
                                                                                                    
                                                                                                    
                           
<?xpacket end="w"?></metadata>
<defs>
    <style>
      .cls-1 {
        fill: #8d9091;
        fill-rule: evenodd;
      }
    </style>
  </defs>
  <path id="instagram" class="cls-1" d="M687.86,2777h-6.721a4.146,4.146,0,0,0-4.139,4.14v6.72a4.146,4.146,0,0,0,4.139,4.14h6.721a4.146,4.146,0,0,0,4.14-4.14v-6.72A4.146,4.146,0,0,0,687.86,2777Zm2.809,10.86a2.812,2.812,0,0,1-2.809,2.81h-6.721a2.812,2.812,0,0,1-2.808-2.81v-6.72a2.812,2.812,0,0,1,2.808-2.81h6.721a2.812,2.812,0,0,1,2.809,2.81v6.72h0Zm-6.169-7.23a3.865,3.865,0,1,0,3.865,3.87A3.875,3.875,0,0,0,684.5,2780.63Zm0,6.4a2.53,2.53,0,1,1,2.534-2.53A2.531,2.531,0,0,1,684.5,2787.03Zm4.027-7.52a0.975,0.975,0,0,0,0,1.95,0.994,0.994,0,0,0,.69-0.29,0.975,0.975,0,0,0,0-1.38A0.983,0.983,0,0,0,688.527,2779.51Z" transform="translate(-677 -2777)"/>
</svg>
