<?xml version="1.0" encoding="UTF-8" standalone="no"?>
<svg width="10px" height="10px" viewBox="0 0 10 10" version="1.1" xmlns="http://www.w3.org/2000/svg" xmlns:xlink="http://www.w3.org/1999/xlink">
    <!-- Generator: Sketch 43.2 (39069) - http://www.bohemiancoding.com/sketch -->
    <title>icon_plus</title>
    <desc>Created with Sketch.</desc>
    <defs></defs>
    <g id="Page-1" stroke="none" stroke-width="1" fill="none" fill-rule="evenodd" opacity="0.36">
        <g id="plus" fill="#2E2424">
            <path d="M6,4 L6,1 C6,0.44771525 5.55228475,0 5,0 C4.44771525,0 4,0.44771525 4,1 L4,4 L1,4 C0.44771525,4 0,4.44771525 0,5 C0,5.55228475 0.44771525,6 1,6 L4,6 L4,9 C4,9.55228475 4.44771525,10 5,10 C5.55228475,10 6,9.55228475 6,9 L6,6 L9,6 C9.55228475,6 10,5.55228475 10,5 C10,4.44771525 9.55228475,4 9,4 L6,4 Z" id="icon_plus"></path>
        </g>
    </g>
</svg>