<svg xmlns="http://www.w3.org/2000/svg" width="16" height="8" viewBox="0 0 16 8">
  <metadata><?xpacket begin="﻿" id="W5M0MpCehiHzreSzNTczkc9d"?>
<x:xmpmeta xmlns:x="adobe:ns:meta/" x:xmptk="Adobe XMP Core 5.6-c138 79.159824, 2016/09/14-01:09:01        ">
   <rdf:RDF xmlns:rdf="http://www.w3.org/1999/02/22-rdf-syntax-ns#">
      <rdf:Description rdf:about=""/>
   </rdf:RDF>
</x:xmpmeta>
                                                                                                    
                                                                                                    
                                                                                                    
                                                                                                    
                                                                                                    
                                                                                                    
                                                                                                    
                                                                                                    
                                                                                                    
                                                                                                    
                                                                                                    
                                                                                                    
                                                                                                    
                                                                                                    
                                                                                                    
                                                                                                    
                                                                                                    
                                                                                                    
                                                                                                    
                                                                                                    
                           
<?xpacket end="w"?></metadata>
<defs>
    <style>
      .cls-1 {
        fill: #8d9091;
        fill-rule: evenodd;
      }
    </style>
  </defs>
  <path id="vk" class="cls-1" d="M601.77,2785.09a19.8,19.8,0,0,1,1.567,1.39,3.858,3.858,0,0,1,.562.71,0.5,0.5,0,0,1-.355.8h-2.33a1.915,1.915,0,0,1-1.485-.53c-0.322-.29-0.621-0.6-0.931-0.9a2.233,2.233,0,0,0-.42-0.33,0.516,0.516,0,0,0-.776.17,1.912,1.912,0,0,0-.246.96c-0.025.48-.19,0.61-0.742,0.63a6.663,6.663,0,0,1-3.335-.63,7.2,7.2,0,0,1-2.245-1.86,24.25,24.25,0,0,1-2.953-4.65c-0.187-.37-0.05-0.56.408-0.57q1.14-.015,2.282,0a0.659,0.659,0,0,1,.633.42,12.218,12.218,0,0,0,1.546,2.53,2.334,2.334,0,0,0,.585.57,0.371,0.371,0,0,0,.6-0.16,1.58,1.58,0,0,0,.134-0.53,7.024,7.024,0,0,0-.037-1.86,0.818,0.818,0,0,0-.748-0.71c-0.223-.04-0.19-0.11-0.082-0.23a0.886,0.886,0,0,1,.715-0.31h2.634a0.58,0.58,0,0,1,.564.61l0,2.58a0.727,0.727,0,0,0,.372.66,0.54,0.54,0,0,0,.526-0.23,8.027,8.027,0,0,0,1.483-2.01c0.178-.32.332-0.65,0.481-0.98a0.565,0.565,0,0,1,.6-0.36h2.536a1.665,1.665,0,0,1,.224.01c0.427,0.07.544,0.23,0.412,0.6a5.385,5.385,0,0,1-1.008,1.54c-0.423.52-.875,1.02-1.294,1.54-0.386.47-.355,0.71,0.123,1.13h0Z" transform="translate(-588 -2780)"/>
</svg>
